<svg width="32" height="31" viewBox="0 0 32 31" fill="none" xmlns="http://www.w3.org/2000/svg">
<path d="M2.66699 15.2147C2.66854 21.4531 7.4382 26.7648 13.9163 27.7425V18.8796H10.5337V15.2147H13.9203V12.4248C13.7689 11.1028 14.2437 9.78532 15.2158 8.82958C16.188 7.87384 17.5568 7.37895 18.951 7.47911C19.9517 7.49448 20.9499 7.57925 21.9377 7.73274V10.8511H20.2523C19.6721 10.7788 19.0888 10.961 18.6667 11.3465C18.2446 11.7319 18.0294 12.2788 18.0817 12.8331V15.2147H21.7763L21.1857 18.8808H18.0817V27.7425C25.0876 26.6895 30.0005 20.604 29.261 13.8947C28.5216 7.18537 22.3887 2.20107 15.3054 2.55266C8.22214 2.90425 2.66812 8.46864 2.66699 15.2147Z" fill="#2D2D2D"/>
</svg>
