<svg width="32" height="31" viewBox="0 0 32 31" fill="none" xmlns="http://www.w3.org/2000/svg">
<path d="M10.4426 2.53516C6.15482 2.53516 2.66699 5.85549 2.66699 9.93463V20.5024C2.66699 24.5804 6.15805 27.8977 10.4469 27.8977H21.5581C25.8458 27.8977 29.3337 24.5774 29.3337 20.4982V9.9305C29.3337 5.85242 25.8426 2.53516 21.5537 2.53516H10.4426ZM23.7781 6.76225C24.3914 6.76225 24.8892 7.23568 24.8892 7.81902C24.8892 8.40236 24.3914 8.87579 23.7781 8.87579C23.1648 8.87579 22.667 8.40236 22.667 7.81902C22.667 7.23568 23.1648 6.76225 23.7781 6.76225ZM16.0003 8.87579C19.677 8.87579 22.667 11.7196 22.667 15.2164C22.667 18.7133 19.677 21.5571 16.0003 21.5571C12.3237 21.5571 9.33366 18.7133 9.33366 15.2164C9.33366 11.7196 12.3237 8.87579 16.0003 8.87579ZM16.0003 10.9893C14.8216 10.9893 13.6911 11.4347 12.8576 12.2274C12.0241 13.0202 11.5559 14.0953 11.5559 15.2164C11.5559 16.3375 12.0241 17.4127 12.8576 18.2054C13.6911 18.9982 14.8216 19.4435 16.0003 19.4435C17.1791 19.4435 18.3095 18.9982 19.143 18.2054C19.9765 17.4127 20.4448 16.3375 20.4448 15.2164C20.4448 14.0953 19.9765 13.0202 19.143 12.2274C18.3095 11.4347 17.1791 10.9893 16.0003 10.9893Z" fill="#2D2D2D"/>
</svg>
